# xmcd CD database file
#
# Track frame offsets:
#	150
#	19100
#	53407
#
# Disc length: 963 seconds
#
# Revision: 0
# Processed by: cddbd v1.5.1PL0 Copyright (c) Steve Scherf et al.
# Submitted via: CDex 1.51
#
DISCID=1703c103
DTITLE=meg - STEREO04
DYEAR=1900
DGENRE=J-Pop
TTITLE0=STEREO04
TTITLE1=STEREO04 sugiurumn house mission mix
TTITLE2=STEREO04 Instrumental
EXTD=
EXTT0=
EXTT1=
EXTT2=
PLAYORDER=
